# 3ds Max Wavefront OBJ Exporter v0.97b - (c)2007 guruware
# File Created: 15.05.2021 18:26:02

mtllib hdobj01.mtl

#
# object Box003
#

v  -543.3043 -227.6267 447.1247
v  -546.6807 -227.6267 440.3071
v  312.7529 -227.6267 14.9766
v  316.2513 -227.6267 22.2543
v  316.1164 -227.4562 22.3210
v  316.1164 -224.2636 22.3210
v  -543.3043 -224.2636 447.1247
v  -546.6807 -224.2636 440.3071
v  312.7530 -224.2636 14.9767
v  -543.4973 -227.4562 446.7350
v  315.2939 -227.4562 21.7134
v  315.5186 -227.4562 21.4562
v  315.6610 -227.4562 21.0347
v  312.9460 -227.4562 15.3663
v  -546.4877 -227.4562 440.6967
v  315.2939 -224.2636 21.7134
v  -543.4973 -224.2636 446.7350
v  -546.4877 -224.2636 440.6967
v  312.9460 -224.2636 15.3662
v  337.0683 -227.6267 11.4242
v  333.6919 -227.6267 4.6066
v  333.8849 -227.4562 4.9962
v  336.8753 -227.4562 11.0345
v  337.0683 -224.2636 11.4241
v  336.8753 -224.2636 11.0345
v  333.6919 -224.2636 4.6066
v  333.8849 -224.2636 4.9962
v  317.8330 -227.6267 12.4591
v  321.4013 -227.6267 19.6643
v  317.8330 -224.2636 12.4591
v  316.2583 -227.4562 21.2372
v  321.2084 -227.4562 19.2746
v  318.0260 -227.4562 12.8487
v  318.0260 -224.2636 12.8487
v  321.4013 -224.2636 19.6641
v  321.4013 -227.4561 19.6643
v  321.2084 -224.2636 19.2746
v  333.5006 -227.4562 5.1866
v  333.5006 -224.2636 5.1866
v  333.8902 -224.2636 4.9936
v  333.8901 -227.4562 4.9937
v  336.4911 -227.4562 11.2249
v  336.8805 -227.4562 11.0319
v  336.4910 -224.2636 11.2249
v  336.8806 -224.2636 11.0319
v  315.6344 -227.4562 21.6916
v  315.8761 -227.4562 21.7752
v  316.1114 -227.4562 21.6607
v  315.8761 -224.2636 21.7752
v  315.6344 -224.2636 21.6916
v  316.1308 -224.2636 22.0021
v  316.1308 -227.4562 22.0020
# 52 vertices

vn 0.0000 -1.0000 -0.0000
vn 0.4431 0.0000 0.8965
vn -0.4436 0.0000 -0.8962
vn 0.0000 1.0000 -0.0000
vn 0.4436 0.0000 0.8962
vn -0.8961 -0.0000 0.4438
vn -0.8961 -0.0001 0.4439
vn -0.8961 -0.0002 0.4438
vn -0.8961 -0.0001 0.4438
vn 0.8961 0.0000 -0.4438
vn 0.8961 -0.0001 -0.4439
vn 0.8961 -0.0002 -0.4439
vn 0.8961 0.0001 -0.4438
vn -0.8961 -0.0000 0.4439
vn -0.8961 0.0000 0.4439
vn 0.8961 -0.0000 -0.4438
vn -0.4440 0.0000 -0.8960
vn 0.4440 0.0000 0.8960
vn -0.4437 0.0000 -0.8962
vn 0.4655 0.0000 0.8851
vn -0.4655 0.0000 -0.8851
vn 0.4437 -0.0000 0.8962
vn 0.4492 0.0030 0.8934
vn -0.4438 -0.0000 -0.8961
vn 0.4438 0.0000 0.8961
vn -0.8961 0.0000 0.4438
vn -0.8962 0.0000 0.4437
vn -0.0000 1.0000 -0.0000
vn 0.0000 1.0000 0.0000
vn -0.0000 1.0000 0.0000
vn 1.0000 0.0000 -0.0000
vn -0.0000 1.0000 -0.0001
vn 0.9215 0.0000 -0.3885
vn 0.9990 0.0000 0.0449
vn 0.9990 -0.0000 0.0449
vn 0.9214 0.0000 -0.3885
vn 0.1340 0.0000 -0.9910
vn 0.5058 0.0000 -0.8627
vn 0.5058 0.0000 -0.8626
vn -0.0639 0.0000 -0.9980
# 40 vertex normals

vt 21.2558 0.2899 0.3256
vt 21.2558 0.7334 0.3256
vt -19.0872 0.7334 0.3256
vt -19.0824 0.2666 0.3256
vt -20.2558 0.3256 0.2899
vt 20.0824 0.3256 0.2666
vt 20.0749 0.3433 0.2666
vt 20.0749 0.6744 0.2666
vt -20.2558 0.6744 0.2899
vt -19.0872 0.3256 0.7334
vt 21.2558 0.3256 0.7334
vt 21.2558 0.6744 0.7334
vt -19.0872 0.6744 0.7334
vt -20.2558 0.3117 0.3433
vt 20.0515 0.3121 0.3433
vt 20.0673 0.3186 0.3433
vt 20.0830 0.3343 0.3433
vt 20.0872 0.7117 0.3433
vt -20.2558 0.7117 0.3433
vt -19.0515 0.6744 0.3121
vt -19.0515 0.3433 0.3121
vt 21.2558 0.3433 0.3117
vt 21.2558 0.6744 0.3117
vt -20.2558 0.6744 0.7117
vt -20.2558 0.3433 0.7117
vt 20.0872 0.3433 0.7117
vt 20.0872 0.6744 0.7117
vt 0.2666 0.3256 -20.2558
vt 0.7101 0.3256 -20.2558
vt 0.6883 0.3433 -20.2558
vt 0.2883 0.3433 -20.2558
vt 0.2899 0.3256 21.2555
vt 0.7334 0.3256 21.2555
vt 0.7117 0.3433 21.2555
vt 0.3117 0.3433 21.2555
vt 0.2899 0.6744 21.2555
vt 0.3117 0.6744 21.2555
vt 0.7101 0.6744 -20.2558
vt 0.6883 0.6744 -20.2558
vt 0.2666 0.6744 -20.2558
vt 0.2883 0.6744 -20.2558
vt 0.7334 0.6744 21.2555
vt 0.7117 0.6744 21.2555
vt -19.6451 0.7319 0.3256
vt -19.6451 0.2884 0.3256
vt -19.6451 0.6744 0.7319
vt -19.6451 0.3256 0.7319
vt 20.1053 0.3120 0.3433
vt 20.6451 0.3101 0.3433
vt 20.6451 0.7101 0.3433
vt 20.6451 0.3433 0.7101
vt 20.6451 0.6744 0.7101
vt -20.2555 0.7334 0.3256
vt -20.2555 0.2899 0.3256
vt -20.2555 0.6744 0.7334
vt -20.2555 0.3256 0.7334
vt 21.2555 0.3256 0.2899
vt 21.2555 0.6744 0.2899
vt 20.6451 0.6744 0.2884
vt 20.6451 0.3433 0.2884
vt 20.6451 0.3256 0.2884
vt 21.2555 0.3117 0.3433
vt 21.2555 0.7117 0.3433
vt -20.2555 0.6744 0.3117
vt -20.2555 0.3433 0.3117
vt -19.6451 0.3433 0.3101
vt -19.6451 0.6744 0.3101
vt 21.2555 0.3433 0.7117
vt 21.2555 0.6744 0.7117
vt -20.2340 0.3433 0.7117
vt -20.2340 0.6744 0.7117
vt -20.2340 0.3117 0.3433
vt -20.2340 0.7117 0.3433
vt 21.2340 0.6744 0.3117
vt 21.2340 0.3433 0.3117
vt 0.6883 0.3433 21.2340
vt 0.6883 0.6744 21.2340
vt 0.2883 0.6744 21.2340
vt 0.2883 0.3433 21.2340
vt 0.3117 0.6744 21.2558
vt 0.3117 0.3433 21.2558
vt 0.7117 0.3433 21.2558
vt 0.7117 0.6744 21.2558
vt 0.6899 0.6744 20.6451
vt 0.6899 0.3433 20.6451
vt 0.7116 0.3433 20.6451
vt 0.7116 0.6744 20.6451
vt 21.2555 0.2899 0.6744
vt 21.2555 0.3117 0.6744
vt 20.6451 0.3101 0.6744
vt 20.6451 0.2884 0.6744
vt 21.2558 0.3117 0.6744
vt 21.2558 0.7117 0.6744
vt 21.2340 0.7117 0.6744
vt 21.2340 0.3117 0.6744
vt -20.2558 0.7117 0.6744
vt 20.0872 0.7117 0.6744
vt 20.0872 0.7334 0.6744
vt -20.2558 0.7334 0.6744
vt 21.2555 0.7117 0.6744
vt 21.2555 0.7334 0.6744
vt 20.6451 0.7319 0.6744
vt 20.6451 0.7101 0.6744
vt 20.0673 0.3055 0.3433
vt 20.0762 0.2964 0.3433
vt 20.0893 0.2963 0.3433
vt 20.0762 0.2964 0.6744
vt 20.0673 0.3055 0.6744
vt 20.0826 0.2806 0.6744
vt -20.2558 0.2899 0.6744
vt 20.0749 0.2666 0.6744
vt -20.2558 0.3117 0.6744
vt 20.0515 0.3121 0.6744
vt 20.0826 0.2806 0.3433
vt 0.3121 0.6744 20.0515
vt 0.3055 0.6744 20.0673
vt 20.0749 0.2666 0.3433
vt 20.6451 0.2884 0.3433
vt 0.5822 0.6774 0.3954
vt 0.5512 0.6774 0.3783
vt 0.5512 0.3226 0.3782
vt 0.5823 0.3226 0.3954
vt 0.6376 0.6774 0.3613
vt 0.6174 0.6774 0.3812
vt 0.6174 0.3226 0.3812
vt 0.6376 0.3226 0.3613
vt 0.6737 0.6774 0.6523
vt 0.6387 0.6774 0.6376
vt 0.6387 0.3226 0.6376
vt 0.6737 0.3226 0.6523
# 130 texture coords

g Box003
usemtl Material__70468
s off
f 1/1/1 2/2/1 3/3/1 4/4/1 
f 1/5/2 4/6/2 5/7/2 6/8/2 
f 1/5/2 6/8/2 7/9/2 
f 3/10/3 2/11/3 8/12/3 9/13/3 
f 10/14/4 11/15/4 12/16/4 13/17/4 
f 10/14/4 13/17/4 14/18/4 15/19/4 
f 16/20/3 11/21/3 10/22/3 17/23/3 
f 18/24/5 15/25/5 14/26/5 19/27/5 
s 1
f 2/28/6 1/29/7 10/30/8 15/31/9 
f 20/32/10 21/33/11 22/34/12 23/35/13 
f 24/36/10 20/32/10 23/35/13 25/37/10 
f 1/29/7 7/38/6 17/39/6 10/30/8 
f 8/40/14 2/28/6 15/31/9 18/41/15 
f 21/33/11 26/42/16 27/43/16 22/34/12 
s off
f 28/44/1 29/45/1 4/4/1 3/3/1 
f 30/46/17 28/47/17 3/10/17 9/13/17 
f 14/18/4 13/17/4 31/48/4 32/49/4 
f 14/18/4 32/49/4 33/50/4 
f 33/51/18 34/52/18 19/27/18 14/26/18 
f 21/53/1 20/54/1 29/45/1 28/44/1 
f 26/55/19 21/56/19 28/47/19 30/46/19 
f 20/57/20 24/58/20 35/59/20 36/60/20 
f 20/57/20 36/60/20 29/61/20 
f 23/62/4 22/63/4 33/50/4 32/49/4 
f 25/64/21 23/65/21 32/66/21 37/67/21 
f 22/68/22 27/69/22 34/52/22 33/51/22 
f 4/6/23 29/61/23 36/60/23 5/7/23 
f 38/70/24 39/71/24 40/24/24 41/25/24 
f 42/72/1 38/73/1 41/19/1 43/14/1 
f 44/74/25 42/75/25 43/22/25 45/23/25 
s 1
f 42/76/6 44/77/6 39/78/6 38/79/26 
s off
f 45/80/16 43/81/16 41/82/16 40/83/16 
s 3
f 37/84/15 32/85/27 36/86/27 35/87/15 
s off
f 24/88/28 25/89/28 37/90/28 35/91/28 
f 45/92/4 40/93/4 39/94/4 44/95/4 
f 18/96/29 19/97/29 9/98/29 8/99/29 
f 27/100/29 26/101/29 30/102/29 34/103/29 
f 34/103/29 30/102/29 9/98/29 19/97/29 
f 46/104/29 47/105/29 48/106/29 31/48/29 
f 46/104/29 31/48/29 13/17/29 12/16/29 
f 49/107/30 50/108/30 50/108/30 51/109/30 
f 7/110/28 6/111/28 51/109/28 17/112/28 
f 16/113/28 17/112/28 51/109/28 50/108/28 
f 11/15/29 46/104/29 12/16/29 
f 47/105/29 52/114/29 48/106/29 
f 16/115/31 50/116/31 50/116/31 
f 52/114/30 5/117/30 36/118/30 31/48/30 
f 36/118/32 32/49/32 31/48/32 
f 52/114/29 31/48/29 48/106/29 
s 16
f 51/119/33 6/120/34 5/121/35 52/122/36 
f 50/123/37 49/124/38 47/125/39 46/126/37 
f 49/124/38 51/119/33 52/122/36 47/125/39 
f 16/127/40 50/128/37 46/129/37 11/130/40 
# 45 polygons - 8 triangles

#
# object ______
#

v  316.0430 -227.6267 22.3531
v  321.7982 -227.6267 19.4677
v  420.2429 -227.6267 216.0398
v  413.8569 -227.6267 219.1617
v  321.7985 -224.2636 19.4676
v  420.2431 -224.2636 216.0397
v  419.8459 -227.4562 216.2364
v  321.4013 -227.4562 19.6642
v  316.0433 -227.4562 22.3528
v  413.8571 -227.4562 219.1617
v  419.8459 -224.2636 216.2363
v  321.4013 -224.2636 19.6642
# 12 vertices

vn 0.0000 -1.0000 0.0000
vn 0.8941 -0.0001 -0.4478
vn -0.0000 1.0000 -0.0000
vn -0.8941 0.0000 0.4478
vn -0.4448 -0.0030 -0.8956
vn -0.4482 -0.0006 -0.8939
vn -0.4482 -0.0009 -0.8939
vn -0.4465 -0.0082 -0.8947
vn 0.4389 -0.0005 0.8985
vn 0.4427 -0.0031 0.8967
vn 0.4411 -0.0077 0.8974
vn 0.4389 -0.0003 0.8985
vn 0.4436 -0.0000 0.8962
vn -0.4436 -0.0000 -0.8962
vn -0.8955 0.0015 0.4451
vn 0.0000 1.0000 -0.0000
# 16 vertex normals

vt 0.7962 5.9843 0.3256
vt 0.2038 6.0061 0.3256
vt 0.2044 -5.0061 0.3256
vt 0.7839 -5.0044 0.3256
vt 6.0061 0.6744 0.7962
vt -5.0061 0.6744 0.7956
vt -5.0061 0.3256 0.7956
vt 6.0061 0.3256 0.7962
vt 0.7734 -5.0061 0.3433
vt 0.7740 6.0061 0.3433
vt 0.2038 5.9843 0.3433
vt 0.2161 -5.0044 0.3433
vt 6.0061 0.3433 0.7734
vt 6.0061 0.6744 0.7734
vt -5.0061 0.6744 0.7740
vt -5.0061 0.3433 0.7740
vt 0.2038 0.3256 6.0061
vt 0.7962 0.3256 5.9843
vt 0.7962 0.3433 5.9843
vt 0.2260 0.3433 6.0061
vt 0.2161 0.3256 -5.0044
vt 0.7956 0.3256 -5.0061
vt 0.7734 0.3433 -5.0061
vt 0.2161 0.3433 -5.0044
vt 0.7956 0.6744 -5.0061
vt 0.7734 0.6744 -5.0061
vt 0.2038 0.6744 6.0061
vt 0.2260 0.6744 6.0061
vt 6.0044 0.3433 0.2161
vt -4.9843 0.3433 0.2038
vt -4.9843 0.3256 0.2038
vt 6.0044 0.3256 0.2161
vt 0.7740 6.0061 0.6744
vt 0.7734 -5.0061 0.6744
vt 0.7956 -5.0061 0.6744
vt 0.7962 6.0061 0.6744
# 36 texture coords

g ______
usemtl Material__70468
s off
f 53/131/41 54/132/41 55/133/41 56/134/41 
f 57/135/42 58/136/42 55/137/42 54/138/42 
f 59/139/43 60/140/43 61/141/43 62/142/43 
f 59/143/44 63/144/44 64/145/44 60/146/44 
s 1
f 54/147/45 53/148/46 61/149/47 60/150/48 
f 56/151/49 55/152/50 59/153/51 62/154/52 
f 55/152/50 58/155/53 63/156/53 59/153/51 
f 57/157/54 54/147/45 60/150/48 64/158/54 
s off
f 62/159/55 61/160/55 53/161/55 56/162/55 
f 64/163/56 63/164/56 58/165/56 57/166/56 
# 10 polygons

#
# object Box005
#

v  -467.0109 -227.6267 654.3466
v  413.8735 -227.6267 219.1569
v  416.6134 -227.6267 224.6893
v  -464.2710 -227.6267 659.8790
v  -467.0109 -224.2636 654.3466
v  413.8735 -224.2636 219.1569
v  413.8736 -227.4562 219.1569
v  416.6135 -224.2636 224.6893
v  -464.2710 -224.2636 659.8789
v  416.4205 -227.4562 224.2996
v  414.0665 -227.4562 219.5466
v  -466.8179 -227.4562 654.7363
v  -464.4640 -227.4562 659.4893
v  414.0665 -224.2636 219.5466
v  -466.8179 -224.2636 654.7363
v  -464.4640 -224.2636 659.4893
v  416.4204 -224.2636 224.2996
v  434.8126 -227.6267 208.7869
v  435.0056 -227.4562 209.1766
v  437.3594 -227.4562 213.9296
v  437.5524 -227.6267 214.3193
v  434.8125 -224.2636 208.7869
v  435.0055 -224.2636 209.1765
v  437.3594 -224.2636 213.9296
v  437.5523 -224.2636 214.3192
v  422.5858 -227.6267 221.7686
v  419.8459 -227.6267 216.2363
v  422.5858 -224.2636 221.7686
v  420.0389 -227.4562 216.6259
v  422.3930 -227.4562 221.3790
v  422.3929 -224.2636 221.3789
v  419.8459 -227.4561 216.2363
v  419.8459 -224.2636 216.2362
v  420.0389 -224.2636 216.6259
v  437.0204 -227.4562 214.0987
v  437.0203 -224.2636 214.0987
v  434.6664 -224.2636 209.3456
v  434.6664 -227.4562 209.3457
# 38 vertices

vn 0.0000 -1.0000 -0.0000
vn -0.4429 -0.0000 -0.8966
vn -0.4429 0.0004 -0.8966
vn 0.4429 0.0000 0.8966
vn 0.0000 1.0000 -0.0000
vn -0.8961 0.0000 0.4438
vn -0.8961 0.0001 0.4438
vn 0.8961 -0.0000 -0.4438
vn 0.8961 -0.0001 -0.4438
vn 0.8961 0.0000 -0.4438
vn -0.8961 0.0000 0.4439
vn 0.8962 0.0000 -0.4436
vn 0.8963 0.0000 -0.4435
vn 0.4393 0.0000 0.8983
vn -0.4393 -0.0000 -0.8983
vn 0.4456 0.0000 0.8952
vn -0.4456 -0.0000 -0.8952
vn -0.8962 0.0000 0.4437
vn 0.0000 1.0000 0.0000
vn 0.8961 0.0000 -0.4439
vn -0.4393 0.0001 -0.8983
vn -0.8961 -0.0000 0.4438
vn -0.4462 -0.0000 -0.8949
vn 0.4463 0.0000 0.8949
vn -0.0000 1.0000 -0.0000
# 25 vertex normals

vt 21.2556 0.7226 0.3256
vt -19.0873 0.7226 0.3256
vt -19.0873 0.2791 0.3256
vt 21.2556 0.2791 0.3256
vt 21.2556 0.3256 0.7226
vt 21.2556 0.6744 0.7226
vt -19.0873 0.6744 0.7226
vt -19.0873 0.3433 0.7226
vt -19.0873 0.3256 0.7226
vt 20.0873 0.3256 0.2791
vt 20.0873 0.6744 0.2791
vt -20.2556 0.6744 0.2791
vt -20.2556 0.3256 0.2791
vt 20.0873 0.3008 0.3433
vt 20.0873 0.7008 0.3433
vt -20.2556 0.7008 0.3433
vt -20.2556 0.3008 0.3433
vt 20.0873 0.6744 0.7008
vt -20.2556 0.6744 0.7008
vt -20.2556 0.3433 0.7008
vt 20.0873 0.3433 0.7008
vt 21.2556 0.6744 0.3008
vt -19.0873 0.6744 0.3008
vt -19.0873 0.3433 0.3008
vt 21.2556 0.3433 0.3008
vt 0.7209 0.3256 -20.2556
vt 0.6992 0.3433 -20.2556
vt 0.2992 0.3433 -20.2556
vt 0.2774 0.3256 -20.2556
vt 0.7226 0.3256 21.2556
vt 0.7008 0.3433 21.2556
vt 0.3008 0.3433 21.2556
vt 0.2791 0.3256 21.2556
vt 0.7226 0.6744 21.2556
vt 0.7008 0.6744 21.2556
vt 0.2992 0.6744 -20.2556
vt 0.2774 0.6744 -20.2556
vt 0.7209 0.6744 -20.2556
vt 0.6992 0.6744 -20.2556
vt 0.3008 0.6744 21.2556
vt 0.2791 0.6744 21.2556
vt -19.6446 0.2774 0.3256
vt -19.6446 0.7209 0.3256
vt 20.6446 0.6744 0.2774
vt 20.6446 0.3256 0.2774
vt 20.6446 0.6992 0.3433
vt 20.6446 0.2992 0.3433
vt -19.6446 0.3433 0.2992
vt -19.6446 0.6744 0.2992
vt -20.2556 0.2791 0.3256
vt -20.2556 0.7226 0.3256
vt 21.2556 0.6744 0.2791
vt 21.2556 0.3256 0.2791
vt -20.2556 0.3256 0.7226
vt -19.6446 0.3256 0.7209
vt -19.6446 0.3433 0.7209
vt -19.6446 0.6744 0.7209
vt -20.2556 0.6744 0.7226
vt 21.2556 0.7008 0.3433
vt 21.2556 0.3008 0.3433
vt 21.2556 0.6744 0.7008
vt 20.6446 0.6744 0.6992
vt 20.6446 0.3433 0.6992
vt 21.2556 0.3433 0.7008
vt -20.2556 0.3433 0.3008
vt -20.2556 0.6744 0.3008
vt 0.2791 0.3433 20.6446
vt 0.3008 0.3433 20.6446
vt 0.3008 0.6744 20.6446
vt 0.2791 0.6744 20.6446
vt 20.6446 0.7209 0.3433
vt 20.0873 0.7226 0.3433
vt 0.7226 0.6744 20.0873
vt 0.7008 0.6744 20.0873
vt 0.7008 0.3433 20.0873
vt 0.7226 0.3433 20.0873
vt 0.6992 0.3433 21.2367
vt 0.6992 0.6744 21.2367
vt 0.2992 0.6744 21.2367
vt 0.2992 0.3433 21.2367
vt -20.2367 0.3433 0.7008
vt -20.2367 0.6744 0.7008
vt -20.2367 0.3008 0.3433
vt -20.2367 0.7008 0.3433
vt 21.2367 0.6744 0.3008
vt 21.2367 0.3433 0.3008
vt 20.6446 0.7209 0.6744
vt 20.6446 0.6992 0.6744
vt 21.2556 0.7008 0.6744
vt 21.2556 0.7226 0.6744
vt -20.2556 0.7008 0.6744
vt 20.0873 0.7008 0.6744
vt 20.0873 0.7226 0.6744
vt -20.2556 0.7226 0.6744
vt 20.0873 0.2791 0.6744
vt 20.0873 0.3008 0.6744
vt -20.2556 0.3008 0.6744
vt -20.2556 0.2791 0.6744
vt 21.2556 0.2791 0.6744
vt 21.2556 0.3008 0.6744
vt 20.6446 0.2992 0.6744
vt 20.6446 0.2774 0.6744
vt 21.2367 0.7008 0.6744
vt 21.2367 0.3008 0.6744
# 104 texture coords

g Box005
usemtl Material__70468
s off
f 65/167/57 66/168/57 67/169/57 68/170/57 
f 65/171/58 69/172/58 70/173/58 71/174/58 
f 65/171/59 71/174/59 66/175/59 
f 67/176/60 72/177/60 73/178/60 68/179/60 
f 74/180/61 75/181/61 76/182/61 77/183/61 
f 78/184/60 79/185/60 76/186/60 75/187/60 
f 80/188/58 81/189/58 74/190/58 77/191/58 
s 1
f 68/192/62 77/193/62 76/194/63 65/195/62 
f 82/196/64 83/197/65 84/198/66 85/199/66 
f 86/200/66 87/201/66 83/197/65 82/196/64 
f 65/195/62 76/194/63 79/202/62 69/203/62 
f 73/204/67 80/205/67 77/193/62 68/192/62 
f 85/199/66 84/198/66 88/206/68 89/207/69 
s off
f 90/208/57 67/169/57 66/168/57 91/209/57 
f 92/210/70 72/177/70 67/176/70 90/211/70 
f 93/212/61 75/181/61 74/180/61 94/213/61 
f 94/214/71 74/190/71 81/189/71 95/215/71 
f 85/216/57 90/208/57 91/209/57 82/217/57 
f 89/218/72 92/210/72 90/211/72 85/219/72 
f 82/220/73 91/221/73 96/222/73 97/223/73 
f 82/220/73 97/223/73 86/224/73 
f 83/225/61 93/212/61 94/213/61 84/226/61 
f 87/227/72 98/228/72 93/229/72 83/230/72 
f 84/231/73 94/214/73 95/215/73 88/232/73 
s 1
f 96/233/74 93/234/74 98/235/74 97/236/74 
s off
f 96/237/75 71/238/75 75/181/75 93/212/75 
s 1
f 70/239/76 78/240/76 75/241/66 71/242/66 
s off
f 96/222/77 91/221/77 66/175/77 71/174/77 
s 1
f 99/243/78 100/244/78 101/245/62 102/246/62 
s off
f 102/247/79 101/248/79 87/185/79 83/186/79 
f 99/249/57 102/250/57 83/182/57 84/183/57 
f 100/251/80 99/252/80 84/191/80 88/188/80 
f 88/206/66 84/198/66 83/197/66 87/201/66 
f 97/253/75 98/254/75 87/255/75 86/256/75 
f 79/257/75 78/258/75 70/259/75 69/260/75 
f 72/261/81 81/262/81 80/263/81 73/264/81 
f 89/265/81 88/266/81 95/267/81 92/268/81 
f 72/261/81 92/268/81 95/267/81 81/262/81 
f 88/266/61 87/255/61 101/269/61 100/270/61 
# 37 polygons - 2 triangles

#
# object Object002
#

v  312.9457 -224.2636 15.3662
v  315.2939 -224.2636 21.7133
v  -543.4976 -224.2636 446.7351
v  -546.4877 -224.2636 440.6967
v  336.4908 -224.2636 11.2248
v  321.2082 -224.2636 19.2746
v  318.0258 -224.2636 12.8487
v  333.5004 -224.2636 5.1865
v  315.9439 -224.2636 21.5475
v  416.4204 -224.2636 224.2997
v  -464.4639 -224.2636 659.4894
v  -466.8179 -224.2636 654.7363
v  414.0664 -224.2636 219.5466
v  437.0202 -224.2636 214.0986
v  422.3930 -224.2636 221.3789
v  420.0388 -224.2636 216.6260
v  434.6662 -224.2636 209.3456
v  315.6342 -224.2636 21.6917
v  315.8761 -224.2636 21.7750
v  316.1306 -224.2636 22.0022
v  316.1164 -224.2636 22.3209
# 21 vertices

vn -0.0000 -1.0000 -0.0000
vn 0.0000 -1.0000 0.0000
vn -0.0000 -1.0000 0.0000
vn 0.0000 -1.0000 -0.0000
# 4 vertex normals

vt -38.6936 12.3572 0.5000
vt -38.6223 11.5580 0.5000
vt 41.9923 11.5572 0.5000
vt 41.9923 12.3572 0.5000
vt -40.9873 11.5572 0.5000
vt -39.8094 11.5541 0.5000
vt -39.8094 12.3541 0.5000
vt -40.9873 12.3572 0.5000
vt -38.6879 11.5440 0.5000
vt -38.6936 -11.3539 0.5000
vt 41.9923 -11.3538 0.5000
vt 41.9923 -10.5538 0.5000
vt -38.6853 -10.5530 0.5000
vt -40.9923 -11.3540 0.5000
vt -39.8083 -11.3572 0.5000
vt -39.8083 -10.5572 0.5000
vt -40.9923 -10.5540 0.5000
vt -38.6538 11.5448 0.5000
vt -38.6717 11.5266 0.5000
vt -38.6845 11.4950 0.5000
vt -38.6691 11.4671 0.5000
# 21 texture coords

g Object002
usemtl Material__70468
s off
f 103/271/82 104/272/82 105/273/82 106/274/82 
f 107/275/82 108/276/82 109/277/82 110/278/82 
f 103/271/82 109/277/82 108/276/82 111/279/82 
f 112/280/83 113/281/83 114/282/83 115/283/83 
f 116/284/83 117/285/83 118/286/83 119/287/83 
f 112/280/83 115/283/83 118/286/83 117/285/83 
f 104/272/82 103/271/82 120/288/82 
f 121/289/84 111/279/84 122/290/84 
f 118/286/85 115/283/85 123/291/85 108/276/85 
f 122/290/82 108/276/82 123/291/82 
f 111/279/83 121/289/83 120/288/83 
f 103/271/82 111/279/82 120/288/82 
f 122/290/83 111/279/83 108/276/83 
# 7 polygons - 6 triangles

#
# object Box006
#

v  413.8572 -227.6267 219.1617
v  413.8571 -227.4920 219.1617
v  -424.7144 -227.4179 633.4410
v  -424.7144 -227.6267 633.4410
v  -522.1624 -227.6267 436.6530
v  316.0817 -227.6267 22.3333
v  -522.1624 -227.4179 436.6530
v  316.0816 -227.4920 22.3333
# 8 vertices

vn 0.4429 0.0001 0.8966
vn 0.0000 -1.0000 0.0000
vn 0.0001 1.0000 -0.0000
vn -0.8961 0.0000 0.4438
vn -0.4431 -0.0000 -0.8965
vn 0.8956 0.0009 -0.4449
# 6 vertex normals

vt 7.6377 0.4303 -1.7024
vt 7.6377 0.4538 -1.7024
vt -6.6377 0.5697 -1.7024
vt -6.6377 0.4303 -1.7024
vt 7.6377 2.7024 0.4303
vt -6.6377 2.7024 0.4303
vt -6.6377 -1.7024 0.4303
vt 7.6377 -1.7024 0.4303
vt -6.6377 2.7024 0.5697
vt -6.6377 -1.7024 0.5697
vt 7.6378 -1.7022 0.5697
vt 7.6360 2.7023 0.5697
vt -1.7024 0.5697 -6.6377
vt -1.7024 0.4303 -6.6377
vt 2.7024 0.4303 -6.6377
vt 2.7024 0.5697 -6.6377
vt 7.6377 0.5697 2.7024
vt -6.6377 0.4538 2.7024
vt -6.6377 0.4303 2.7024
vt 7.6377 0.4303 2.7024
vt -19.1828 0.5567 10.2775
vt -19.1828 0.4433 10.2776
vt 20.1828 0.4433 -9.2775
vt 20.1828 0.5567 -9.2776
# 24 texture coords

g Box006
usemtl Material__70480
s off
f 124/292/86 125/293/86 126/294/86 127/295/86 
f 128/296/87 129/297/87 124/298/87 127/299/87 
f 130/300/88 126/301/88 125/302/88 131/303/88 
f 130/304/89 128/305/89 127/306/89 126/307/89 
f 130/308/90 131/309/90 129/310/90 128/311/90 
f 125/312/91 124/313/91 129/314/91 131/315/91 
# 6 polygons

