{
    "asset" : {
        "generator" : "Khronos glTF Blender I/O v1.5.17",
        "version" : "2.0"
    },
    "scene" : 0,
    "scenes" : [
        {
            "name" : "Scene",
            "nodes" : [
                0,
                1,
                2
            ]
        }
    ],
    "nodes" : [
        {
            "mesh" : 0,
            "name" : "\u91c7\u7164\u673a\u9f7f\u8f6e02",
            "rotation" : [
                0,
                -0.10018806159496307,
                0,
                0.9949685335159302
            ],
            "scale" : [
                0.45462682843208313,
                0.45462673902511597,
                0.45462682843208313
            ],
            "translation" : [
                3.160780191421509,
                0.410247802734375,
                0.5258173942565918
            ]
        },
        {
            "mesh" : 1,
            "name" : "\u91c7\u7164\u673a",
            "rotation" : [
                0,
                -0.10214737057685852,
                0,
                0.994769275188446
            ],
            "scale" : [
                0.4546266496181488,
                0.4546266794204712,
                0.4546266496181488
            ],
            "translation" : [
                0.11781182140111923,
                -0.015472412109375,
                -0.12819962203502655
            ]
        },
        {
            "mesh" : 2,
            "name" : "\u91c7\u7164\u673a\u9f7f\u8f6e01",
            "rotation" : [
                0,
                -0.10018806159496307,
                0,
                0.9949685335159302
            ],
            "scale" : [
                0.45462682843208313,
                0.45462673902511597,
                0.45462682843208313
            ],
            "translation" : [
                -2.9201300144195557,
                -0.297943115234375,
                -0.7314305305480957
            ]
        }
    ],
    "animations" : [
        {
            "channels" : [
                {
                    "sampler" : 0,
                    "target" : {
                        "node" : 0,
                        "path" : "rotation"
                    }
                }
            ],
            "name" : "\u91c7\u7164\u673a\u9f7f\u8f6e02Action.002",
            "samplers" : [
                {
                    "input" : 45,
                    "interpolation" : "LINEAR",
                    "output" : 46
                }
            ]
        },
        {
            "channels" : [
                {
                    "sampler" : 0,
                    "target" : {
                        "node" : 2,
                        "path" : "rotation"
                    }
                }
            ],
            "name" : "\u91c7\u7164\u673a\u9f7f\u8f6e01Action.001",
            "samplers" : [
                {
                    "input" : 45,
                    "interpolation" : "LINEAR",
                    "output" : 47
                }
            ]
        }
    ],
    "materials" : [
        {
            "doubleSided" : true,
            "name" : "YYZJT001.003",
            "pbrMetallicRoughness" : {
                "baseColorTexture" : {
                    "index" : 0
                },
                "roughnessFactor" : 0.858578622341156
            }
        },
        {
            "doubleSided" : true,
            "name" : "20131030045255078450.003",
            "pbrMetallicRoughness" : {
                "baseColorTexture" : {
                    "index" : 1
                },
                "roughnessFactor" : 0.858578622341156
            }
        },
        {
            "doubleSided" : true,
            "name" : "JGMJT006.003",
            "pbrMetallicRoughness" : {
                "baseColorTexture" : {
                    "index" : 2
                },
                "roughnessFactor" : 0.858578622341156
            }
        },
        {
            "doubleSided" : true,
            "name" : "JGMJT007.003",
            "pbrMetallicRoughness" : {
                "baseColorTexture" : {
                    "index" : 3
                },
                "roughnessFactor" : 0.858578622341156
            }
        },
        {
            "doubleSided" : true,
            "name" : "xgmjj01.003",
            "pbrMetallicRoughness" : {
                "baseColorTexture" : {
                    "index" : 4
                },
                "roughnessFactor" : 0.858578622341156
            }
        }
    ],
    "meshes" : [
        {
            "name" : "\u7f51\u683c.009",
            "primitives" : [
                {
                    "attributes" : {
                        "POSITION" : 0,
                        "NORMAL" : 1,
                        "TEXCOORD_0" : 2,
                        "TEXCOORD_1" : 3
                    },
                    "indices" : 4,
                    "material" : 0
                },
                {
                    "attributes" : {
                        "POSITION" : 5,
                        "NORMAL" : 6,
                        "TEXCOORD_0" : 7,
                        "TEXCOORD_1" : 8
                    },
                    "indices" : 9,
                    "material" : 1
                }
            ]
        },
        {
            "name" : "\u7f51\u683c.010",
            "primitives" : [
                {
                    "attributes" : {
                        "POSITION" : 10,
                        "NORMAL" : 11,
                        "TEXCOORD_0" : 12,
                        "TEXCOORD_1" : 13
                    },
                    "indices" : 14,
                    "material" : 0
                },
                {
                    "attributes" : {
                        "POSITION" : 15,
                        "NORMAL" : 16,
                        "TEXCOORD_0" : 17,
                        "TEXCOORD_1" : 18
                    },
                    "indices" : 19,
                    "material" : 2
                },
                {
                    "attributes" : {
                        "POSITION" : 20,
                        "NORMAL" : 21,
                        "TEXCOORD_0" : 22,
                        "TEXCOORD_1" : 23
                    },
                    "indices" : 24,
                    "material" : 3
                },
                {
                    "attributes" : {
                        "POSITION" : 25,
                        "NORMAL" : 26,
                        "TEXCOORD_0" : 27,
                        "TEXCOORD_1" : 28
                    },
                    "indices" : 29,
                    "material" : 1
                },
                {
                    "attributes" : {
                        "POSITION" : 30,
                        "NORMAL" : 31,
                        "TEXCOORD_0" : 32,
                        "TEXCOORD_1" : 33
                    },
                    "indices" : 34,
                    "material" : 4
                }
            ]
        },
        {
            "name" : "\u7f51\u683c.011",
            "primitives" : [
                {
                    "attributes" : {
                        "POSITION" : 35,
                        "NORMAL" : 36,
                        "TEXCOORD_0" : 37,
                        "TEXCOORD_1" : 38
                    },
                    "indices" : 39,
                    "material" : 0
                },
                {
                    "attributes" : {
                        "POSITION" : 40,
                        "NORMAL" : 41,
                        "TEXCOORD_0" : 42,
                        "TEXCOORD_1" : 43
                    },
                    "indices" : 44,
                    "material" : 1
                }
            ]
        }
    ],
    "textures" : [
        {
            "sampler" : 0,
            "source" : 0
        },
        {
            "sampler" : 0,
            "source" : 1
        },
        {
            "sampler" : 0,
            "source" : 2
        },
        {
            "sampler" : 0,
            "source" : 3
        },
        {
            "sampler" : 0,
            "source" : 4
        }
    ],
    "images" : [
        {
            "bufferView" : 5,
            "mimeType" : "image/jpeg",
            "name" : "YYZJT001"
        },
        {
            "bufferView" : 11,
            "mimeType" : "image/jpeg",
            "name" : "20131030045255078450"
        },
        {
            "bufferView" : 22,
            "mimeType" : "image/jpeg",
            "name" : "JGMJT006"
        },
        {
            "bufferView" : 28,
            "mimeType" : "image/jpeg",
            "name" : "JGMJT007"
        },
        {
            "bufferView" : 39,
            "mimeType" : "image/jpeg",
            "name" : "xgmjj01"
        }
    ],
    "accessors" : [
        {
            "bufferView" : 0,
            "componentType" : 5126,
            "count" : 6463,
            "max" : [
                1.63689386844635,
                1.5471928119659424,
                1.0282635688781738
            ],
            "min" : [
                -1.5935354232788086,
                -1.6224989891052246,
                0.008226676844060421
            ],
            "type" : "VEC3"
        },
        {
            "bufferView" : 1,
            "componentType" : 5126,
            "count" : 6463,
            "type" : "VEC3"
        },
        {
            "bufferView" : 2,
            "componentType" : 5126,
            "count" : 6463,
            "type" : "VEC2"
        },
        {
            "bufferView" : 3,
            "componentType" : 5126,
            "count" : 6463,
            "type" : "VEC2"
        },
        {
            "bufferView" : 4,
            "componentType" : 5123,
            "count" : 6645,
            "type" : "SCALAR"
        },
        {
            "bufferView" : 6,
            "componentType" : 5126,
            "count" : 648,
            "max" : [
                0.628144383430481,
                0.6027779579162598,
                0.45751771330833435
            ],
            "min" : [
                -0.5945462584495544,
                -0.6364009380340576,
                -0.052055273205041885
            ],
            "type" : "VEC3"
        },
        {
            "bufferView" : 7,
            "componentType" : 5126,
            "count" : 648,
            "type" : "VEC3"
        },
        {
            "bufferView" : 8,
            "componentType" : 5126,
            "count" : 648,
            "type" : "VEC2"
        },
        {
            "bufferView" : 9,
            "componentType" : 5126,
            "count" : 648,
            "type" : "VEC2"
        },
        {
            "bufferView" : 10,
            "componentType" : 5123,
            "count" : 648,
            "type" : "SCALAR"
        },
        {
            "bufferView" : 12,
            "componentType" : 5126,
            "count" : 288,
            "max" : [
                4.820714473724365,
                -1.4515035152435303,
                0.060457732528448105
            ],
            "min" : [
                -3.8297362327575684,
                -1.7467471361160278,
                -0.2826269567012787
            ],
            "type" : "VEC3"
        },
        {
            "bufferView" : 13,
            "componentType" : 5126,
            "count" : 288,
            "type" : "VEC3"
        },
        {
            "bufferView" : 14,
            "componentType" : 5126,
            "count" : 288,
            "type" : "VEC2"
        },
        {
            "bufferView" : 15,
            "componentType" : 5126,
            "count" : 288,
            "type" : "VEC2"
        },
        {
            "bufferView" : 16,
            "componentType" : 5123,
            "count" : 384,
            "type" : "SCALAR"
        },
        {
            "bufferView" : 17,
            "componentType" : 5126,
            "count" : 84,
            "max" : [
                5.685731887817383,
                0.1370227038860321,
                -1.4011313915252686
            ],
            "min" : [
                -5.328221321105957,
                -1.1866137981414795,
                -1.566080927848816
            ],
            "type" : "VEC3"
        },
        {
            "bufferView" : 18,
            "componentType" : 5126,
            "count" : 84,
            "type" : "VEC3"
        },
        {
            "bufferView" : 19,
            "componentType" : 5126,
            "count" : 84,
            "type" : "VEC2"
        },
        {
            "bufferView" : 20,
            "componentType" : 5126,
            "count" : 84,
            "type" : "VEC2"
        },
        {
            "bufferView" : 21,
            "componentType" : 5123,
            "count" : 204,
            "type" : "SCALAR"
        },
        {
            "bufferView" : 23,
            "componentType" : 5126,
            "count" : 60,
            "max" : [
                5.554232597351074,
                0.020135272294282913,
                0.19664141535758972
            ],
            "min" : [
                -5.185459136962891,
                -1.0225526094436646,
                -1.6527091264724731
            ],
            "type" : "VEC3"
        },
        {
            "bufferView" : 24,
            "componentType" : 5126,
            "count" : 60,
            "type" : "VEC3"
        },
        {
            "bufferView" : 25,
            "componentType" : 5126,
            "count" : 60,
            "type" : "VEC2"
        },
        {
            "bufferView" : 26,
            "componentType" : 5126,
            "count" : 60,
            "type" : "VEC2"
        },
        {
            "bufferView" : 27,
            "componentType" : 5123,
            "count" : 132,
            "type" : "SCALAR"
        },
        {
            "bufferView" : 29,
            "componentType" : 5126,
            "count" : 2846,
            "max" : [
                7.304190635681152,
                1.3842335939407349,
                0.19664141535758972
            ],
            "min" : [
                -7.2998456954956055,
                -2.4991252422332764,
                -1.6527091264724731
            ],
            "type" : "VEC3"
        },
        {
            "bufferView" : 30,
            "componentType" : 5126,
            "count" : 2846,
            "type" : "VEC3"
        },
        {
            "bufferView" : 31,
            "componentType" : 5126,
            "count" : 2846,
            "type" : "VEC2"
        },
        {
            "bufferView" : 32,
            "componentType" : 5126,
            "count" : 2846,
            "type" : "VEC2"
        },
        {
            "bufferView" : 33,
            "componentType" : 5123,
            "count" : 3672,
            "type" : "SCALAR"
        },
        {
            "bufferView" : 34,
            "componentType" : 5126,
            "count" : 72,
            "max" : [
                4.578042984008789,
                -0.2589969038963318,
                0.19090662896633148
            ],
            "min" : [
                -4.17733097076416,
                -1.5408552885055542,
                -1.6527091264724731
            ],
            "type" : "VEC3"
        },
        {
            "bufferView" : 35,
            "componentType" : 5126,
            "count" : 72,
            "type" : "VEC3"
        },
        {
            "bufferView" : 36,
            "componentType" : 5126,
            "count" : 72,
            "type" : "VEC2"
        },
        {
            "bufferView" : 37,
            "componentType" : 5126,
            "count" : 72,
            "type" : "VEC2"
        },
        {
            "bufferView" : 38,
            "componentType" : 5123,
            "count" : 72,
            "type" : "SCALAR"
        },
        {
            "bufferView" : 40,
            "componentType" : 5126,
            "count" : 6463,
            "max" : [
                1.6270434856414795,
                1.5762999057769775,
                1.02903413772583
            ],
            "min" : [
                -1.622936487197876,
                -1.579622507095337,
                0.03630290925502777
            ],
            "type" : "VEC3"
        },
        {
            "bufferView" : 41,
            "componentType" : 5126,
            "count" : 6463,
            "type" : "VEC3"
        },
        {
            "bufferView" : 42,
            "componentType" : 5126,
            "count" : 6463,
            "type" : "VEC2"
        },
        {
            "bufferView" : 43,
            "componentType" : 5126,
            "count" : 6463,
            "type" : "VEC2"
        },
        {
            "bufferView" : 44,
            "componentType" : 5123,
            "count" : 6645,
            "type" : "SCALAR"
        },
        {
            "bufferView" : 45,
            "componentType" : 5126,
            "count" : 648,
            "max" : [
                0.6331272721290588,
                0.6121563911437988,
                0.4845738410949707
            ],
            "min" : [
                -0.6080092787742615,
                -0.6117806434631348,
                -0.02163766510784626
            ],
            "type" : "VEC3"
        },
        {
            "bufferView" : 46,
            "componentType" : 5126,
            "count" : 648,
            "type" : "VEC3"
        },
        {
            "bufferView" : 47,
            "componentType" : 5126,
            "count" : 648,
            "type" : "VEC2"
        },
        {
            "bufferView" : 48,
            "componentType" : 5126,
            "count" : 648,
            "type" : "VEC2"
        },
        {
            "bufferView" : 49,
            "componentType" : 5123,
            "count" : 648,
            "type" : "SCALAR"
        },
        {
            "bufferView" : 50,
            "componentType" : 5126,
            "count" : 61,
            "max" : [
                2
            ],
            "min" : [
                0
            ],
            "type" : "SCALAR"
        },
        {
            "bufferView" : 51,
            "componentType" : 5126,
            "count" : 61,
            "type" : "VEC4"
        },
        {
            "bufferView" : 52,
            "componentType" : 5126,
            "count" : 61,
            "type" : "VEC4"
        }
    ],
    "bufferViews" : [
        {
            "buffer" : 0,
            "byteLength" : 77556,
            "byteOffset" : 0
        },
        {
            "buffer" : 0,
            "byteLength" : 77556,
            "byteOffset" : 77556
        },
        {
            "buffer" : 0,
            "byteLength" : 51704,
            "byteOffset" : 155112
        },
        {
            "buffer" : 0,
            "byteLength" : 51704,
            "byteOffset" : 206816
        },
        {
            "buffer" : 0,
            "byteLength" : 13290,
            "byteOffset" : 258520
        },
        {
            "buffer" : 0,
            "byteLength" : 123600,
            "byteOffset" : 271812
        },
        {
            "buffer" : 0,
            "byteLength" : 7776,
            "byteOffset" : 395412
        },
        {
            "buffer" : 0,
            "byteLength" : 7776,
            "byteOffset" : 403188
        },
        {
            "buffer" : 0,
            "byteLength" : 5184,
            "byteOffset" : 410964
        },
        {
            "buffer" : 0,
            "byteLength" : 5184,
            "byteOffset" : 416148
        },
        {
            "buffer" : 0,
            "byteLength" : 1296,
            "byteOffset" : 421332
        },
        {
            "buffer" : 0,
            "byteLength" : 464817,
            "byteOffset" : 422628
        },
        {
            "buffer" : 0,
            "byteLength" : 3456,
            "byteOffset" : 887448
        },
        {
            "buffer" : 0,
            "byteLength" : 3456,
            "byteOffset" : 890904
        },
        {
            "buffer" : 0,
            "byteLength" : 2304,
            "byteOffset" : 894360
        },
        {
            "buffer" : 0,
            "byteLength" : 2304,
            "byteOffset" : 896664
        },
        {
            "buffer" : 0,
            "byteLength" : 768,
            "byteOffset" : 898968
        },
        {
            "buffer" : 0,
            "byteLength" : 1008,
            "byteOffset" : 899736
        },
        {
            "buffer" : 0,
            "byteLength" : 1008,
            "byteOffset" : 900744
        },
        {
            "buffer" : 0,
            "byteLength" : 672,
            "byteOffset" : 901752
        },
        {
            "buffer" : 0,
            "byteLength" : 672,
            "byteOffset" : 902424
        },
        {
            "buffer" : 0,
            "byteLength" : 408,
            "byteOffset" : 903096
        },
        {
            "buffer" : 0,
            "byteLength" : 22289,
            "byteOffset" : 903504
        },
        {
            "buffer" : 0,
            "byteLength" : 720,
            "byteOffset" : 925796
        },
        {
            "buffer" : 0,
            "byteLength" : 720,
            "byteOffset" : 926516
        },
        {
            "buffer" : 0,
            "byteLength" : 480,
            "byteOffset" : 927236
        },
        {
            "buffer" : 0,
            "byteLength" : 480,
            "byteOffset" : 927716
        },
        {
            "buffer" : 0,
            "byteLength" : 264,
            "byteOffset" : 928196
        },
        {
            "buffer" : 0,
            "byteLength" : 177429,
            "byteOffset" : 928460
        },
        {
            "buffer" : 0,
            "byteLength" : 34152,
            "byteOffset" : 1105892
        },
        {
            "buffer" : 0,
            "byteLength" : 34152,
            "byteOffset" : 1140044
        },
        {
            "buffer" : 0,
            "byteLength" : 22768,
            "byteOffset" : 1174196
        },
        {
            "buffer" : 0,
            "byteLength" : 22768,
            "byteOffset" : 1196964
        },
        {
            "buffer" : 0,
            "byteLength" : 7344,
            "byteOffset" : 1219732
        },
        {
            "buffer" : 0,
            "byteLength" : 864,
            "byteOffset" : 1227076
        },
        {
            "buffer" : 0,
            "byteLength" : 864,
            "byteOffset" : 1227940
        },
        {
            "buffer" : 0,
            "byteLength" : 576,
            "byteOffset" : 1228804
        },
        {
            "buffer" : 0,
            "byteLength" : 576,
            "byteOffset" : 1229380
        },
        {
            "buffer" : 0,
            "byteLength" : 144,
            "byteOffset" : 1229956
        },
        {
            "buffer" : 0,
            "byteLength" : 71250,
            "byteOffset" : 1230100
        },
        {
            "buffer" : 0,
            "byteLength" : 77556,
            "byteOffset" : 1301352
        },
        {
            "buffer" : 0,
            "byteLength" : 77556,
            "byteOffset" : 1378908
        },
        {
            "buffer" : 0,
            "byteLength" : 51704,
            "byteOffset" : 1456464
        },
        {
            "buffer" : 0,
            "byteLength" : 51704,
            "byteOffset" : 1508168
        },
        {
            "buffer" : 0,
            "byteLength" : 13290,
            "byteOffset" : 1559872
        },
        {
            "buffer" : 0,
            "byteLength" : 7776,
            "byteOffset" : 1573164
        },
        {
            "buffer" : 0,
            "byteLength" : 7776,
            "byteOffset" : 1580940
        },
        {
            "buffer" : 0,
            "byteLength" : 5184,
            "byteOffset" : 1588716
        },
        {
            "buffer" : 0,
            "byteLength" : 5184,
            "byteOffset" : 1593900
        },
        {
            "buffer" : 0,
            "byteLength" : 1296,
            "byteOffset" : 1599084
        },
        {
            "buffer" : 0,
            "byteLength" : 244,
            "byteOffset" : 1600380
        },
        {
            "buffer" : 0,
            "byteLength" : 976,
            "byteOffset" : 1600624
        },
        {
            "buffer" : 0,
            "byteLength" : 976,
            "byteOffset" : 1601600
        }
    ],
    "samplers" : [
        {
            "magFilter" : 9729,
            "minFilter" : 9987
        }
    ],
    "buffers" : [
        {
            "byteLength" : 1602576,
            "uri" : "data:application/octet-stream;base64,"
        }
    ]
}
